# xmcd
#
# Track frame offsets: 
#        150
#        11980
#        23207
#        32567
#        41860
#        53477
#        64060
#        75797
#        86537
#        98672
#        109190
#        121022
#        131922
#        145890
#        157515
#        170667
#        183650
#        198567
#        210625
#        225185
#        237910
#        252075
#
# Disc length: 3538 seconds
#
# Revision: 0
# Processed by: cddbd v1.4PL0 Copyright (c) Steve Scherf et al.
# Submitted via: ExactAudioCopy v0.90b4
#
DISCID=180dd016
DTITLE=Tennessee Ernie Ford - Portrait Of An Artist 22 Legendary Hits
DYEAR=1900
DGENRE=Country
TTITLE0=Sixteen Tons
TTITLE1=Blackberry Boogie
TTITLE2=Nine Pound Hammer
TTITLE3=God Bless America
TTITLE4=I'm Hog Tied
TTITLE5=Dixie
TTITLE6=The Shot Gun Boogie
TTITLE7=Hey, Mr.Cotton Picker
TTITLE8=Ain't Nobody Business But My Own
TTITLE9=Catfish Boogie
TTITLE10=I'll Never Be Free
TTITLE11=Country Junction
TTITLE12=Mule Train
TTITLE13=River Of No Return
TTITLE14=The Ballad Of Davy Croket
TTITLE15=Hicktown
TTITLE16=Goober Peas
TTITLE17=Smokey Mountain Boogie
TTITLE18=The Cry Of The Wild Goose
TTITLE19=Stack-O-Lee
TTITLE20=Mister And Mississippi
TTITLE21=America The Beautiful
EXTD=
EXTT0=
EXTT1=
EXTT2=
EXTT3=
EXTT4=
EXTT5=
EXTT6=
EXTT7=
EXTT8=
EXTT9=
EXTT10=
EXTT11=
EXTT12=
EXTT13=
EXTT14=
EXTT15=
EXTT16=
EXTT17=
EXTT18=
EXTT19=
EXTT20=
EXTT21=
PLAYORDER=
